{
  "asset": {
    "generator": "OpenSceneGraph 3.5.6",
    "version": "2.0"
  },
  "accessors": [
    {
      "type": "VEC3",
      "componentType": 5126,
      "count": 5884,
      "max": [
        93.66844940185547,
        80.22344970703125,
        70.12519073486328
      ],
      "min": [
        -72.06649780273438,
        -98.91729736328125,
        -60.79949951171875
      ],
      "bufferView": 0,
      "byteOffset": 0
    },
    {
      "type": "VEC3",
      "componentType": 5126,
      "count": 5884,
      "bufferView": 0,
      "byteOffset": 12
    },
    {
      "type": "VEC4",
      "componentType": 5126,
      "count": 5884,
      "bufferView": 0,
      "byteOffset": 24
    },
    {
      "type": "VEC2",
      "componentType": 5126,
      "count": 5884,
      "bufferView": 0,
      "byteOffset": 40
    },
    {
      "type": "SCALAR",
      "componentType": 5123,
      "count": 30510,
      "bufferView": 1,
      "byteOffset": 0
    },
    {
      "type": "SCALAR",
      "componentType": 5123,
      "count": 15720,
      "bufferView": 1,
      "byteOffset": 61020
    },
    {
      "type": "SCALAR",
      "componentType": 5123,
      "count": 32139,
      "bufferView": 1,
      "byteOffset": 92460
    },
    {
      "type": "SCALAR",
      "componentType": 5123,
      "count": 8532,
      "bufferView": 1,
      "byteOffset": 156740
    },
    {
      "type": "SCALAR",
      "componentType": 5123,
      "count": 11616,
      "bufferView": 1,
      "byteOffset": 173804
    },
    {
      "type": "SCALAR",
      "componentType": 5123,
      "count": 8832,
      "bufferView": 1,
      "byteOffset": 197036
    },
    {
      "type": "SCALAR",
      "componentType": 5123,
      "count": 11916,
      "bufferView": 1,
      "byteOffset": 214700
    },
    {
      "type": "SCALAR",
      "componentType": 5123,
      "count": 9432,
      "bufferView": 1,
      "byteOffset": 238532
    },
    {
      "type": "SCALAR",
      "componentType": 5123,
      "count": 6648,
      "bufferView": 1,
      "byteOffset": 257396
    },
    {
      "type": "SCALAR",
      "componentType": 5123,
      "count": 12876,
      "bufferView": 1,
      "byteOffset": 270692
    },
    {
      "type": "SCALAR",
      "componentType": 5123,
      "count": 10080,
      "bufferView": 1,
      "byteOffset": 296444
    },
    {
      "type": "SCALAR",
      "componentType": 5123,
      "count": 8724,
      "bufferView": 1,
      "byteOffset": 316604
    },
    {
      "type": "SCALAR",
      "componentType": 5123,
      "count": 8724,
      "bufferView": 1,
      "byteOffset": 334052
    },
    {
      "type": "SCALAR",
      "componentType": 5123,
      "count": 36,
      "bufferView": 1,
      "byteOffset": 351500
    },
    {
      "type": "SCALAR",
      "componentType": 5123,
      "count": 36,
      "bufferView": 1,
      "byteOffset": 351572
    },
    {
      "type": "SCALAR",
      "componentType": 5123,
      "count": 36,
      "bufferView": 1,
      "byteOffset": 351644
    },
    {
      "type": "SCALAR",
      "componentType": 5123,
      "count": 36,
      "bufferView": 1,
      "byteOffset": 351716
    },
    {
      "type": "SCALAR",
      "componentType": 5123,
      "count": 36,
      "bufferView": 1,
      "byteOffset": 351788
    },
    {
      "type": "SCALAR",
      "componentType": 5123,
      "count": 36,
      "bufferView": 1,
      "byteOffset": 351860
    },
    {
      "type": "SCALAR",
      "componentType": 5123,
      "count": 36,
      "bufferView": 1,
      "byteOffset": 351932
    },
    {
      "type": "SCALAR",
      "componentType": 5123,
      "count": 36,
      "bufferView": 1,
      "byteOffset": 352004
    },
    {
      "type": "SCALAR",
      "componentType": 5123,
      "count": 36,
      "bufferView": 1,
      "byteOffset": 352076
    },
    {
      "type": "SCALAR",
      "componentType": 5123,
      "count": 36,
      "bufferView": 1,
      "byteOffset": 352148
    },
    {
      "type": "VEC3",
      "componentType": 5126,
      "count": 5884,
      "max": [
        5.454246520996094,
        18.236133575439453,
        6.580341339111328
      ],
      "min": [
        -6.8325958251953125,
        -1.1049914360046387,
        -9.942142486572266
      ],
      "bufferView": 2,
      "byteOffset": 0
    },
    {
      "type": "VEC3",
      "componentType": 5126,
      "count": 5884,
      "bufferView": 2,
      "byteOffset": 12
    },
    {
      "type": "VEC3",
      "componentType": 5126,
      "count": 5884,
      "max": [
        6.677936553955078,
        18.78396224975586,
        5.62841796875
      ],
      "min": [
        -9.624221801757812,
        -4.782286643981934,
        -12.536023139953613
      ],
      "bufferView": 3,
      "byteOffset": 0
    },
    {
      "type": "VEC3",
      "componentType": 5126,
      "count": 5884,
      "bufferView": 3,
      "byteOffset": 12
    },
    {
      "type": "VEC3",
      "componentType": 5126,
      "count": 5884,
      "max": [
        0,
        0,
        0
      ],
      "min": [
        0,
        0,
        0
      ],
      "bufferView": 4,
      "byteOffset": 0
    },
    {
      "type": "VEC3",
      "componentType": 5126,
      "count": 5884,
      "bufferView": 4,
      "byteOffset": 12
    },
    {
      "type": "VEC3",
      "componentType": 5126,
      "count": 5884,
      "max": [
        9.87636947631836,
        0.0874481201171875,
        2.942127227783203
      ],
      "min": [
        -0.07626152038574219,
        -4.55650520324707,
        0
      ],
      "bufferView": 5,
      "byteOffset": 0
    },
    {
      "type": "VEC3",
      "componentType": 5126,
      "count": 5884,
      "bufferView": 5,
      "byteOffset": 12
    },
    {
      "type": "VEC3",
      "componentType": 5126,
      "count": 5884,
      "max": [
        0.6386480331420898,
        18.1004638671875,
        8.628242492675781
      ],
      "min": [
        -23.432857513427734,
        -0.12565040588378906,
        -3.700397491455078
      ],
      "bufferView": 6,
      "byteOffset": 0
    },
    {
      "type": "VEC3",
      "componentType": 5126,
      "count": 5884,
      "bufferView": 6,
      "byteOffset": 12
    },
    {
      "type": "VEC3",
      "componentType": 5126,
      "count": 5884,
      "max": [
        1.6208515167236328,
        19.774307250976562,
        1.4713516235351562
      ],
      "min": [
        -7.2348785400390625,
        -4.553840637207031,
        -2.9974708557128906
      ],
      "bufferView": 7,
      "byteOffset": 0
    },
    {
      "type": "VEC3",
      "componentType": 5126,
      "count": 5884,
      "bufferView": 7,
      "byteOffset": 12
    },
    {
      "type": "VEC3",
      "componentType": 5126,
      "count": 5884,
      "max": [
        30.637859344482422,
        6.865407943725586,
        5.796810150146484
      ],
      "min": [
        -2.6984567642211914,
        -44.2083625793457,
        -6.913839340209961
      ],
      "bufferView": 8,
      "byteOffset": 0
    },
    {
      "type": "VEC3",
      "componentType": 5126,
      "count": 5884,
      "bufferView": 8,
      "byteOffset": 12
    },
    {
      "type": "VEC3",
      "componentType": 5126,
      "count": 5884,
      "max": [
        4.214988708496094,
        0.0948028564453125,
        0.062408447265625
      ],
      "min": [
        -19.555503845214844,
        -46.72539520263672,
        -12.510945320129395
      ],
      "bufferView": 9,
      "byteOffset": 0
    },
    {
      "type": "VEC3",
      "componentType": 5126,
      "count": 5884,
      "bufferView": 9,
      "byteOffset": 12
    },
    {
      "type": "VEC3",
      "componentType": 5126,
      "count": 5884,
      "max": [
        2.7528038024902344,
        3.7630932331085205,
        1.7908601760864258
      ],
      "min": [
        -3.967273712158203,
        -0.5250816345214844,
        -1.3431453704833984
      ],
      "bufferView": 10,
      "byteOffset": 0
    },
    {
      "type": "VEC3",
      "componentType": 5126,
      "count": 5884,
      "bufferView": 10,
      "byteOffset": 12
    },
    {
      "type": "VEC3",
      "componentType": 5126,
      "count": 5884,
      "max": [
        9.229988098144531,
        2.5378990173339844,
        1.5989837646484375
      ],
      "min": [
        -1.9431533813476562,
        -7.263646125793457,
        -5.308622360229492
      ],
      "bufferView": 11,
      "byteOffset": 0
    },
    {
      "type": "VEC3",
      "componentType": 5126,
      "count": 5884,
      "bufferView": 11,
      "byteOffset": 12
    },
    {
      "type": "VEC3",
      "componentType": 5126,
      "count": 5884,
      "max": [
        3.225386619567871,
        1.2251930236816406,
        1.4071063995361328
      ],
      "min": [
        -1.7973785400390625,
        -3.3255252838134766,
        -0.8314704895019531
      ],
      "bufferView": 12,
      "byteOffset": 0
    },
    {
      "type": "VEC3",
      "componentType": 5126,
      "count": 5884,
      "bufferView": 12,
      "byteOffset": 12
    },
    {
      "type": "VEC3",
      "componentType": 5126,
      "count": 5884,
      "max": [
        8.66323471069336,
        6.826076507568359,
        3.837557792663574
      ],
      "min": [
        -8.25840950012207,
        -7.001104354858398,
        -8.122831344604492
      ],
      "bufferView": 13,
      "byteOffset": 0
    },
    {
      "type": "VEC3",
      "componentType": 5126,
      "count": 5884,
      "bufferView": 13,
      "byteOffset": 12
    },
    {
      "type": "VEC3",
      "componentType": 5126,
      "count": 5884,
      "max": [
        1.2954368591308594,
        0.3500537872314453,
        1.215226173400879
      ],
      "min": [
        -0.8906135559082031,
        -0.8751373291015625,
        -0.9593892097473145
      ],
      "bufferView": 14,
      "byteOffset": 0
    },
    {
      "type": "VEC3",
      "componentType": 5126,
      "count": 5884,
      "bufferView": 14,
      "byteOffset": 12
    },
    {
      "type": "VEC3",
      "componentType": 5126,
      "count": 5884,
      "max": [
        0,
        0,
        0
      ],
      "min": [
        0,
        0,
        0
      ],
      "bufferView": 15,
      "byteOffset": 0
    },
    {
      "type": "VEC3",
      "componentType": 5126,
      "count": 5884,
      "bufferView": 15,
      "byteOffset": 12
    },
    {
      "type": "VEC3",
      "componentType": 5126,
      "count": 5884,
      "max": [
        0.16193008422851562,
        0.17502593994140625,
        0.06395912170410156
      ],
      "min": [
        0,
        -0.17502784729003906,
        -0.25583720207214355
      ],
      "bufferView": 16,
      "byteOffset": 0
    },
    {
      "type": "VEC3",
      "componentType": 5126,
      "count": 5884,
      "bufferView": 16,
      "byteOffset": 12
    },
    {
      "type": "VEC3",
      "componentType": 5126,
      "count": 5884,
      "max": [
        0.08096504211425781,
        0.08751392364501953,
        0
      ],
      "min": [
        0,
        0,
        -0.06395936012268066
      ],
      "bufferView": 17,
      "byteOffset": 0
    },
    {
      "type": "VEC3",
      "componentType": 5126,
      "count": 5884,
      "bufferView": 17,
      "byteOffset": 12
    },
    {
      "type": "VEC3",
      "componentType": 5126,
      "count": 5884,
      "max": [
        1.3764019012451172,
        4.025634765625,
        3.0700464248657227
      ],
      "min": [
        -2.1050844192504883,
        -0.7876243591308594,
        -2.430452346801758
      ],
      "bufferView": 18,
      "byteOffset": 0
    },
    {
      "type": "VEC3",
      "componentType": 5126,
      "count": 5884,
      "bufferView": 18,
      "byteOffset": 12
    },
    {
      "type": "VEC3",
      "componentType": 5126,
      "count": 5884,
      "max": [
        1.2144722938537598,
        0.6125984191894531,
        1.5350232124328613
      ],
      "min": [
        -0.32385921478271484,
        -2.2753562927246094,
        -0.767512321472168
      ],
      "bufferView": 19,
      "byteOffset": 0
    },
    {
      "type": "VEC3",
      "componentType": 5126,
      "count": 5884,
      "bufferView": 19,
      "byteOffset": 12
    },
    {
      "type": "VEC3",
      "componentType": 5126,
      "count": 5884,
      "max": [
        2.6718387603759766,
        4.813259124755859,
        6.587810516357422
      ],
      "min": [
        -4.210169792175293,
        -2.275360107421875,
        -3.901519775390625
      ],
      "bufferView": 20,
      "byteOffset": 0
    },
    {
      "type": "VEC3",
      "componentType": 5126,
      "count": 5884,
      "bufferView": 20,
      "byteOffset": 12
    },
    {
      "type": "VEC3",
      "componentType": 5126,
      "count": 5884,
      "max": [
        6.6391143798828125,
        4.965850830078125,
        4.988824844360352
      ],
      "min": [
        -4.53402853012085,
        -1.58941650390625,
        -3.2619245052337646
      ],
      "bufferView": 21,
      "byteOffset": 0
    },
    {
      "type": "VEC3",
      "componentType": 5126,
      "count": 5884,
      "bufferView": 21,
      "byteOffset": 12
    },
    {
      "type": "VEC3",
      "componentType": 5126,
      "count": 5884,
      "max": [
        0,
        0,
        0
      ],
      "min": [
        0,
        0,
        0
      ],
      "bufferView": 22,
      "byteOffset": 0
    },
    {
      "type": "VEC3",
      "componentType": 5126,
      "count": 5884,
      "bufferView": 22,
      "byteOffset": 12
    },
    {
      "type": "VEC3",
      "componentType": 5126,
      "count": 5884,
      "max": [
        0,
        0,
        0
      ],
      "min": [
        0,
        0,
        0
      ],
      "bufferView": 23,
      "byteOffset": 0
    },
    {
      "type": "VEC3",
      "componentType": 5126,
      "count": 5884,
      "bufferView": 23,
      "byteOffset": 12
    },
    {
      "type": "VEC3",
      "componentType": 5126,
      "count": 2856,
      "max": [
        78.87321472167969,
        85.02617645263672,
        37.622920989990234
      ],
      "min": [
        -30.08880043029785,
        -14.731499671936035,
        -69.24009704589844
      ],
      "bufferView": 24,
      "byteOffset": 0
    },
    {
      "type": "VEC3",
      "componentType": 5126,
      "count": 2856,
      "bufferView": 24,
      "byteOffset": 12
    },
    {
      "type": "VEC4",
      "componentType": 5126,
      "count": 2856,
      "bufferView": 24,
      "byteOffset": 24
    },
    {
      "type": "VEC2",
      "componentType": 5126,
      "count": 2856,
      "bufferView": 24,
      "byteOffset": 40
    },
    {
      "type": "VEC3",
      "componentType": 5126,
      "count": 2856,
      "max": [
        6.7378387451171875,
        33.64154052734375,
        11.029308319091797
      ],
      "min": [
        -5.4864959716796875,
        -6.892980098724365,
        -19.824951171875
      ],
      "bufferView": 25,
      "byteOffset": 0
    },
    {
      "type": "VEC3",
      "componentType": 5126,
      "count": 2856,
      "bufferView": 25,
      "byteOffset": 12
    },
    {
      "type": "VEC3",
      "componentType": 5126,
      "count": 2856,
      "max": [
        3.8551859855651855,
        3.0702171325683594,
        1.0962982177734375
      ],
      "min": [
        -0.22573471069335938,
        -1.0721397399902344,
        -1.2007064819335938
      ],
      "bufferView": 26,
      "byteOffset": 0
    },
    {
      "type": "VEC3",
      "componentType": 5126,
      "count": 2856,
      "bufferView": 26,
      "byteOffset": 12
    },
    {
      "type": "VEC3",
      "componentType": 5126,
      "count": 2856,
      "max": [
        0,
        0,
        0
      ],
      "min": [
        0,
        0,
        0
      ],
      "bufferView": 27,
      "byteOffset": 0
    },
    {
      "type": "VEC3",
      "componentType": 5126,
      "count": 2856,
      "bufferView": 27,
      "byteOffset": 12
    },
    {
      "type": "VEC3",
      "componentType": 5126,
      "count": 2856,
      "max": [
        0,
        0,
        0
      ],
      "min": [
        0,
        0,
        0
      ],
      "bufferView": 28,
      "byteOffset": 0
    },
    {
      "type": "VEC3",
      "componentType": 5126,
      "count": 2856,
      "bufferView": 28,
      "byteOffset": 12
    },
    {
      "type": "VEC3",
      "componentType": 5126,
      "count": 2856,
      "max": [
        0.23729705810546875,
        0.2924022674560547,
        0.2088184356689453
      ],
      "min": [
        -0.40618133544921875,
        -0.19493484497070312,
        -0.2088184356689453
      ],
      "bufferView": 29,
      "byteOffset": 0
    },
    {
      "type": "VEC3",
      "componentType": 5126,
      "count": 2856,
      "bufferView": 29,
      "byteOffset": 12
    },
    {
      "type": "VEC3",
      "componentType": 5126,
      "count": 2856,
      "max": [
        0,
        0,
        0
      ],
      "min": [
        0,
        0,
        0
      ],
      "bufferView": 30,
      "byteOffset": 0
    },
    {
      "type": "VEC3",
      "componentType": 5126,
      "count": 2856,
      "bufferView": 30,
      "byteOffset": 12
    },
    {
      "type": "VEC3",
      "componentType": 5126,
      "count": 2856,
      "max": [
        0,
        0.4873371124267578,
        0.1566143035888672
      ],
      "min": [
        -0.9581375122070312,
        -0.14620018005371094,
        -0.4176368713378906
      ],
      "bufferView": 31,
      "byteOffset": 0
    },
    {
      "type": "VEC3",
      "componentType": 5126,
      "count": 2856,
      "bufferView": 31,
      "byteOffset": 12
    },
    {
      "type": "VEC3",
      "componentType": 5126,
      "count": 2856,
      "max": [
        0,
        0,
        0
      ],
      "min": [
        0,
        0,
        0
      ],
      "bufferView": 32,
      "byteOffset": 0
    },
    {
      "type": "VEC3",
      "componentType": 5126,
      "count": 2856,
      "bufferView": 32,
      "byteOffset": 12
    },
    {
      "type": "VEC3",
      "componentType": 5126,
      "count": 2856,
      "max": [
        0,
        0,
        0
      ],
      "min": [
        0,
        0,
        0
      ],
      "bufferView": 33,
      "byteOffset": 0
    },
    {
      "type": "VEC3",
      "componentType": 5126,
      "count": 2856,
      "bufferView": 33,
      "byteOffset": 12
    },
    {
      "type": "VEC3",
      "componentType": 5126,
      "count": 2856,
      "max": [
        1.3307514190673828,
        0.2436676025390625,
        0.10756683349609375
      ],
      "min": [
        -0.6919918060302734,
        -0.2436676025390625,
        -0.4154396057128906
      ],
      "bufferView": 34,
      "byteOffset": 0
    },
    {
      "type": "VEC3",
      "componentType": 5126,
      "count": 2856,
      "bufferView": 34,
      "byteOffset": 12
    },
    {
      "type": "VEC3",
      "componentType": 5126,
      "count": 2856,
      "max": [
        0,
        0,
        0
      ],
      "min": [
        0,
        0,
        0
      ],
      "bufferView": 35,
      "byteOffset": 0
    },
    {
      "type": "VEC3",
      "componentType": 5126,
      "count": 2856,
      "bufferView": 35,
      "byteOffset": 12
    },
    {
      "type": "VEC3",
      "componentType": 5126,
      "count": 2856,
      "max": [
        0,
        0,
        0
      ],
      "min": [
        0,
        0,
        0
      ],
      "bufferView": 36,
      "byteOffset": 0
    },
    {
      "type": "VEC3",
      "componentType": 5126,
      "count": 2856,
      "bufferView": 36,
      "byteOffset": 12
    },
    {
      "type": "VEC3",
      "componentType": 5126,
      "count": 2856,
      "max": [
        0,
        0,
        0
      ],
      "min": [
        0,
        0,
        0
      ],
      "bufferView": 37,
      "byteOffset": 0
    },
    {
      "type": "VEC3",
      "componentType": 5126,
      "count": 2856,
      "bufferView": 37,
      "byteOffset": 12
    },
    {
      "type": "VEC3",
      "componentType": 5126,
      "count": 2856,
      "max": [
        0,
        0,
        0
      ],
      "min": [
        0,
        0,
        0
      ],
      "bufferView": 38,
      "byteOffset": 0
    },
    {
      "type": "VEC3",
      "componentType": 5126,
      "count": 2856,
      "bufferView": 38,
      "byteOffset": 12
    },
    {
      "type": "VEC3",
      "componentType": 5126,
      "count": 2856,
      "max": [
        0,
        0,
        0
      ],
      "min": [
        0,
        0,
        0
      ],
      "bufferView": 39,
      "byteOffset": 0
    },
    {
      "type": "VEC3",
      "componentType": 5126,
      "count": 2856,
      "bufferView": 39,
      "byteOffset": 12
    },
    {
      "type": "VEC3",
      "componentType": 5126,
      "count": 2856,
      "max": [
        0,
        0,
        0
      ],
      "min": [
        0,
        0,
        0
      ],
      "bufferView": 40,
      "byteOffset": 0
    },
    {
      "type": "VEC3",
      "componentType": 5126,
      "count": 2856,
      "bufferView": 40,
      "byteOffset": 12
    },
    {
      "type": "VEC3",
      "componentType": 5126,
      "count": 2856,
      "max": [
        0.2129203975200653,
        0.19493484497070312,
        3.4455108642578125
      ],
      "min": [
        -2.821194648742676,
        -0.8284721374511719,
        -0.26102352142333984
      ],
      "bufferView": 41,
      "byteOffset": 0
    },
    {
      "type": "VEC3",
      "componentType": 5126,
      "count": 2856,
      "bufferView": 41,
      "byteOffset": 12
    },
    {
      "type": "VEC3",
      "componentType": 5126,
      "count": 2856,
      "max": [
        0.5599374771118164,
        0.07832717895507812,
        0.05220508575439453
      ],
      "min": [
        -0.0518646240234375,
        -0.2648658752441406,
        -1.8271656036376953
      ],
      "bufferView": 42,
      "byteOffset": 0
    },
    {
      "type": "VEC3",
      "componentType": 5126,
      "count": 2856,
      "bufferView": 42,
      "byteOffset": 12
    },
    {
      "type": "VEC3",
      "componentType": 5126,
      "count": 2856,
      "max": [
        0.4258403778076172,
        0.38986968994140625,
        0.1566143035888672
      ],
      "min": [
        -0.15968894958496094,
        -0.2924003601074219,
        -0.26102447509765625
      ],
      "bufferView": 43,
      "byteOffset": 0
    },
    {
      "type": "VEC3",
      "componentType": 5126,
      "count": 2856,
      "bufferView": 43,
      "byteOffset": 12
    },
    {
      "type": "VEC3",
      "componentType": 5126,
      "count": 2856,
      "max": [
        0.47907257080078125,
        0.4873390197753906,
        0.2088184356689453
      ],
      "min": [
        -0.212921142578125,
        -0.3898658752441406,
        -0.46984100341796875
      ],
      "bufferView": 44,
      "byteOffset": 0
    },
    {
      "type": "VEC3",
      "componentType": 5126,
      "count": 2856,
      "bufferView": 44,
      "byteOffset": 12
    },
    {
      "type": "VEC3",
      "componentType": 5126,
      "count": 2856,
      "max": [
        2.1507110595703125,
        4.191089630126953,
        3.7368736267089844
      ],
      "min": [
        -1.9847602844238281,
        -0.9259376525878906,
        -2.7016143798828125
      ],
      "bufferView": 45,
      "byteOffset": 0
    },
    {
      "type": "VEC3",
      "componentType": 5126,
      "count": 2856,
      "bufferView": 45,
      "byteOffset": 12
    },
    {
      "type": "VEC3",
      "componentType": 5126,
      "count": 2856,
      "max": [
        0,
        0,
        0
      ],
      "min": [
        0,
        0,
        0
      ],
      "bufferView": 46,
      "byteOffset": 0
    },
    {
      "type": "VEC3",
      "componentType": 5126,
      "count": 2856,
      "bufferView": 46,
      "byteOffset": 12
    },
    {
      "type": "VEC3",
      "componentType": 5126,
      "count": 5719,
      "max": [
        16.06938934326172,
        96.47370147705078,
        45.54292678833008
      ],
      "min": [
        -91.92539978027344,
        -66.1344985961914,
        -65.24819946289062
      ],
      "bufferView": 47,
      "byteOffset": 0
    },
    {
      "type": "VEC3",
      "componentType": 5126,
      "count": 5719,
      "bufferView": 47,
      "byteOffset": 12
    },
    {
      "type": "VEC4",
      "componentType": 5126,
      "count": 5719,
      "bufferView": 47,
      "byteOffset": 24
    },
    {
      "type": "VEC2",
      "componentType": 5126,
      "count": 5719,
      "bufferView": 47,
      "byteOffset": 40
    },
    {
      "type": "VEC3",
      "componentType": 5126,
      "count": 5719,
      "max": [
        4.709754943847656,
        2.565643310546875,
        2.491929054260254
      ],
      "min": [
        -3.569395065307617,
        -1.3101158142089844,
        -3.543478012084961
      ],
      "bufferView": 48,
      "byteOffset": 0
    },
    {
      "type": "VEC3",
      "componentType": 5126,
      "count": 5719,
      "bufferView": 48,
      "byteOffset": 12
    },
    {
      "type": "VEC3",
      "componentType": 5126,
      "count": 5719,
      "max": [
        15.813995361328125,
        20.046123504638672,
        12.30291748046875
      ],
      "min": [
        -12.474414825439453,
        -8.891853332519531,
        -29.01660919189453
      ],
      "bufferView": 49,
      "byteOffset": 0
    },
    {
      "type": "VEC3",
      "componentType": 5126,
      "count": 5719,
      "bufferView": 49,
      "byteOffset": 12
    },
    {
      "type": "VEC3",
      "componentType": 5126,
      "count": 5719,
      "max": [
        0,
        0,
        0
      ],
      "min": [
        0,
        0,
        0
      ],
      "bufferView": 50,
      "byteOffset": 0
    },
    {
      "type": "VEC3",
      "componentType": 5126,
      "count": 5719,
      "bufferView": 50,
      "byteOffset": 12
    },
    {
      "type": "VEC3",
      "componentType": 5126,
      "count": 5719,
      "max": [
        8.712230682373047,
        1.6197509765625,
        1.0427932739257812
      ],
      "min": [
        -1.662841796875,
        -21.432632446289062,
        -10.67828369140625
      ],
      "bufferView": 51,
      "byteOffset": 0
    },
    {
      "type": "VEC3",
      "componentType": 5126,
      "count": 5719,
      "bufferView": 51,
      "byteOffset": 12
    },
    {
      "type": "VEC3",
      "componentType": 5126,
      "count": 5719,
      "max": [
        0,
        0,
        0
      ],
      "min": [
        0,
        0,
        0
      ],
      "bufferView": 52,
      "byteOffset": 0
    },
    {
      "type": "VEC3",
      "componentType": 5126,
      "count": 5719,
      "bufferView": 52,
      "byteOffset": 12
    },
    {
      "type": "VEC3",
      "componentType": 5126,
      "count": 5719,
      "max": [
        0.5767669677734375,
        0.5806179046630859,
        0.26373291015625
      ],
      "min": [
        -0.26696014404296875,
        -0.12406444549560547,
        -0.7675275802612305
      ],
      "bufferView": 53,
      "byteOffset": 0
    },
    {
      "type": "VEC3",
      "componentType": 5126,
      "count": 5719,
      "bufferView": 53,
      "byteOffset": 12
    },
    {
      "type": "VEC3",
      "componentType": 5126,
      "count": 5719,
      "max": [
        0,
        0,
        0
      ],
      "min": [
        0,
        0,
        0
      ],
      "bufferView": 54,
      "byteOffset": 0
    },
    {
      "type": "VEC3",
      "componentType": 5126,
      "count": 5719,
      "bufferView": 54,
      "byteOffset": 12
    },
    {
      "type": "VEC3",
      "componentType": 5126,
      "count": 5719,
      "max": [
        0,
        0,
        0
      ],
      "min": [
        0,
        0,
        0
      ],
      "bufferView": 55,
      "byteOffset": 0
    },
    {
      "type": "VEC3",
      "componentType": 5126,
      "count": 5719,
      "bufferView": 55,
      "byteOffset": 12
    },
    {
      "type": "VEC3",
      "componentType": 5126,
      "count": 5719,
      "max": [
        0,
        0,
        0
      ],
      "min": [
        0,
        0,
        0
      ],
      "bufferView": 56,
      "byteOffset": 0
    },
    {
      "type": "VEC3",
      "componentType": 5126,
      "count": 5719,
      "bufferView": 56,
      "byteOffset": 12
    },
    {
      "type": "VEC3",
      "componentType": 5126,
      "count": 5719,
      "max": [
        0,
        0.1736888885498047,
        0.07776737213134766
      ],
      "min": [
        -0.09557938575744629,
        -0.024812698364257812,
        -0.08452951908111572
      ],
      "bufferView": 57,
      "byteOffset": 0
    },
    {
      "type": "VEC3",
      "componentType": 5126,
      "count": 5719,
      "bufferView": 57,
      "byteOffset": 12
    },
    {
      "type": "VEC3",
      "componentType": 5126,
      "count": 5719,
      "max": [
        0,
        0,
        0
      ],
      "min": [
        0,
        0,
        0
      ],
      "bufferView": 58,
      "byteOffset": 0
    },
    {
      "type": "VEC3",
      "componentType": 5126,
      "count": 5719,
      "bufferView": 58,
      "byteOffset": 12
    },
    {
      "type": "VEC3",
      "componentType": 5126,
      "count": 5719,
      "max": [
        0.1021728515625,
        0.03970146179199219,
        1.0008316040039062
      ],
      "min": [
        -0.6031379699707031,
        -0.2878265380859375,
        -0.182586669921875
      ],
      "bufferView": 59,
      "byteOffset": 0
    },
    {
      "type": "VEC3",
      "componentType": 5126,
      "count": 5719,
      "bufferView": 59,
      "byteOffset": 12
    },
    {
      "type": "VEC3",
      "componentType": 5126,
      "count": 5719,
      "max": [
        6.888106822967529,
        6.620052337646484,
        4.4665374755859375
      ],
      "min": [
        -2.790698528289795,
        -2.1438255310058594,
        -4.767465591430664
      ],
      "bufferView": 60,
      "byteOffset": 0
    },
    {
      "type": "VEC3",
      "componentType": 5126,
      "count": 5719,
      "bufferView": 60,
      "byteOffset": 12
    },
    {
      "type": "VEC3",
      "componentType": 5126,
      "count": 5719,
      "max": [
        1.3447027206420898,
        1.0669517517089844,
        1.49786376953125
      ],
      "min": [
        -1.6248490810394287,
        -1.3101158142089844,
        -1.2747058868408203
      ],
      "bufferView": 61,
      "byteOffset": 0
    },
    {
      "type": "VEC3",
      "componentType": 5126,
      "count": 5719,
      "bufferView": 61,
      "byteOffset": 12
    },
    {
      "type": "VEC3",
      "componentType": 5126,
      "count": 5719,
      "max": [
        3.589169979095459,
        7.781293869018555,
        4.19942569732666
      ],
      "min": [
        -5.6095194816589355,
        -1.1016883850097656,
        -6.6744489669799805
      ],
      "bufferView": 62,
      "byteOffset": 0
    },
    {
      "type": "VEC3",
      "componentType": 5126,
      "count": 5719,
      "bufferView": 62,
      "byteOffset": 12
    },
    {
      "type": "VEC3",
      "componentType": 5126,
      "count": 5719,
      "max": [
        2.3136796951293945,
        1.4838066101074219,
        2.6102709770202637
      ],
      "min": [
        -1.450169563293457,
        -2.868358612060547,
        -1.9881337881088257
      ],
      "bufferView": 63,
      "byteOffset": 0
    },
    {
      "type": "VEC3",
      "componentType": 5126,
      "count": 5719,
      "bufferView": 63,
      "byteOffset": 12
    },
    {
      "type": "VEC3",
      "componentType": 5126,
      "count": 5719,
      "max": [
        3.0156936645507812,
        1.3696670532226562,
        5.152917861938477
      ],
      "min": [
        -6.09730339050293,
        -5.528293609619141,
        -4.148706436157227
      ],
      "bufferView": 64,
      "byteOffset": 0
    },
    {
      "type": "VEC3",
      "componentType": 5126,
      "count": 5719,
      "bufferView": 64,
      "byteOffset": 12
    },
    {
      "type": "VEC3",
      "componentType": 5126,
      "count": 5719,
      "max": [
        10.246767044067383,
        2.6308822631835938,
        8.601722717285156
      ],
      "min": [
        -3.41119384765625,
        -1.6858062744140625,
        -13.402997970581055
      ],
      "bufferView": 65,
      "byteOffset": 0
    },
    {
      "type": "VEC3",
      "componentType": 5126,
      "count": 5719,
      "bufferView": 65,
      "byteOffset": 12
    },
    {
      "type": "VEC3",
      "componentType": 5126,
      "count": 5719,
      "max": [
        0.19775009155273438,
        0.089324951171875,
        0.7810525894165039
      ],
      "min": [
        -0.20434188842773438,
        -0.08932876586914062,
        -0.12510371208190918
      ],
      "bufferView": 66,
      "byteOffset": 0
    },
    {
      "type": "VEC3",
      "componentType": 5126,
      "count": 5719,
      "bufferView": 66,
      "byteOffset": 12
    },
    {
      "type": "VEC3",
      "componentType": 5126,
      "count": 5719,
      "max": [
        0.0032958984375,
        0.33249664306640625,
        0.013524532318115234
      ],
      "min": [
        -1.1996855735778809,
        -0.01488494873046875,
        -0.5984687805175781
      ],
      "bufferView": 67,
      "byteOffset": 0
    },
    {
      "type": "VEC3",
      "componentType": 5126,
      "count": 5719,
      "bufferView": 67,
      "byteOffset": 12
    },
    {
      "type": "VEC3",
      "componentType": 5126,
      "count": 5719,
      "max": [
        0,
        0,
        0
      ],
      "min": [
        0,
        0,
        0
      ],
      "bufferView": 68,
      "byteOffset": 0
    },
    {
      "type": "VEC3",
      "componentType": 5126,
      "count": 5719,
      "bufferView": 68,
      "byteOffset": 12
    },
    {
      "type": "VEC3",
      "componentType": 5126,
      "count": 5719,
      "max": [
        6.077526092529297,
        2.2078857421875,
        4.73027229309082
      ],
      "min": [
        -5.477684020996094,
        -2.01361083984375,
        -6.823221206665039
      ],
      "bufferView": 69,
      "byteOffset": 0
    },
    {
      "type": "VEC3",
      "componentType": 5126,
      "count": 5719,
      "bufferView": 69,
      "byteOffset": 12
    },
    {
      "type": "VEC3",
      "componentType": 5126,
      "count": 4460,
      "max": [
        4.145997524261475,
        0.6914075016975403,
        0.009999994188547134
      ],
      "min": [
        0.0649987980723381,
        -0.009000210091471672,
        -0.009999999776482582
      ],
      "bufferView": 70,
      "byteOffset": 0
    },
    {
      "type": "VEC3",
      "componentType": 5126,
      "count": 4460,
      "bufferView": 70,
      "byteOffset": 12
    },
    {
      "type": "VEC2",
      "componentType": 5126,
      "count": 4460,
      "bufferView": 70,
      "byteOffset": 24
    },
    {
      "type": "VEC3",
      "componentType": 5126,
      "count": 6023,
      "max": [
        4.739982604980469,
        0.6819918751716614,
        0.009999994188547134
      ],
      "min": [
        0.0689741000533104,
        -0.23000000417232513,
        -0.009999999776482582
      ],
      "bufferView": 71,
      "byteOffset": 0
    },
    {
      "type": "VEC3",
      "componentType": 5126,
      "count": 6023,
      "bufferView": 71,
      "byteOffset": 12
    },
    {
      "type": "VEC2",
      "componentType": 5126,
      "count": 6023,
      "bufferView": 71,
      "byteOffset": 24
    },
    {
      "type": "VEC3",
      "componentType": 5126,
      "count": 4633,
      "max": [
        5.027036190032959,
        0.6914075016975403,
        0.009999994188547134
      ],
      "min": [
        0.0649987980723381,
        -0.009000210091471672,
        -0.009999999776482582
      ],
      "bufferView": 72,
      "byteOffset": 0
    },
    {
      "type": "VEC3",
      "componentType": 5126,
      "count": 4633,
      "bufferView": 72,
      "byteOffset": 12
    },
    {
      "type": "VEC2",
      "componentType": 5126,
      "count": 4633,
      "bufferView": 72,
      "byteOffset": 24
    },
    {
      "type": "VEC3",
      "componentType": 5126,
      "count": 6196,
      "max": [
        5.620936393737793,
        0.6819918751716614,
        0.009999994188547134
      ],
      "min": [
        0.0689741000533104,
        -0.23000000417232513,
        -0.009999999776482582
      ],
      "bufferView": 73,
      "byteOffset": 0
    },
    {
      "type": "VEC3",
      "componentType": 5126,
      "count": 6196,
      "bufferView": 73,
      "byteOffset": 12
    },
    {
      "type": "VEC2",
      "componentType": 5126,
      "count": 6196,
      "bufferView": 73,
      "byteOffset": 24
    },
    {
      "type": "VEC3",
      "componentType": 5126,
      "count": 4914,
      "max": [
        3.835984230041504,
        0.45799216628074646,
        0.009999994188547134
      ],
      "min": [
        0.0029988300520926714,
        -0.009006399661302567,
        -0.009999999776482582
      ],
      "bufferView": 74,
      "byteOffset": 0
    },
    {
      "type": "VEC3",
      "componentType": 5126,
      "count": 4914,
      "bufferView": 74,
      "byteOffset": 12
    },
    {
      "type": "VEC2",
      "componentType": 5126,
      "count": 4914,
      "bufferView": 74,
      "byteOffset": 24
    },
    {
      "type": "VEC3",
      "componentType": 5126,
      "count": 3504,
      "max": [
        2.1189961433410645,
        0.5419991612434387,
        0.010000009089708328
      ],
      "min": [
        0.026000000536441803,
        -0.008999999612569809,
        -0.009999999776482582
      ],
      "bufferView": 75,
      "byteOffset": 0
    },
    {
      "type": "VEC3",
      "componentType": 5126,
      "count": 3504,
      "bufferView": 75,
      "byteOffset": 12
    },
    {
      "type": "VEC2",
      "componentType": 5126,
      "count": 3504,
      "bufferView": 75,
      "byteOffset": 24
    },
    {
      "type": "VEC3",
      "componentType": 5126,
      "count": 6705,
      "max": [
        7.049927234649658,
        0.6819918751716614,
        0.009999994188547134
      ],
      "min": [
        0.05704237520694733,
        -0.23000000417232513,
        -0.009999999776482582
      ],
      "bufferView": 76,
      "byteOffset": 0
    },
    {
      "type": "VEC3",
      "componentType": 5126,
      "count": 6705,
      "bufferView": 76,
      "byteOffset": 12
    },
    {
      "type": "VEC2",
      "componentType": 5126,
      "count": 6705,
      "bufferView": 76,
      "byteOffset": 24
    },
    {
      "type": "VEC3",
      "componentType": 5126,
      "count": 5223,
      "max": [
        6.155989170074463,
        0.6819918751716614,
        0.009999994188547134
      ],
      "min": [
        0.05704237520694733,
        -0.23000000417232513,
        -0.009999999776482582
      ],
      "bufferView": 77,
      "byteOffset": 0
    },
    {
      "type": "VEC3",
      "componentType": 5126,
      "count": 5223,
      "bufferView": 77,
      "byteOffset": 12
    },
    {
      "type": "VEC2",
      "componentType": 5126,
      "count": 5223,
      "bufferView": 77,
      "byteOffset": 24
    },
    {
      "type": "VEC3",
      "componentType": 5126,
      "count": 4567,
      "max": [
        4.38100004196167,
        0.6820001006126404,
        0.009999994188547134
      ],
      "min": [
        0.06099870055913925,
        -0.009000210091471672,
        -0.009999999776482582
      ],
      "bufferView": 78,
      "byteOffset": 0
    },
    {
      "type": "VEC3",
      "componentType": 5126,
      "count": 4567,
      "bufferView": 78,
      "byteOffset": 12
    },
    {
      "type": "VEC2",
      "componentType": 5126,
      "count": 4567,
      "bufferView": 78,
      "byteOffset": 24
    },
    {
      "type": "VEC3",
      "componentType": 5126,
      "count": 4567,
      "max": [
        4.38100004196167,
        0.6820001006126404,
        0.009999994188547134
      ],
      "min": [
        0.06099870055913925,
        -0.009000210091471672,
        -0.009999999776482582
      ],
      "bufferView": 79,
      "byteOffset": 0
    },
    {
      "type": "VEC3",
      "componentType": 5126,
      "count": 4567,
      "bufferView": 79,
      "byteOffset": 12
    },
    {
      "type": "VEC2",
      "componentType": 5126,
      "count": 4567,
      "bufferView": 79,
      "byteOffset": 24
    },
    {
      "type": "VEC3",
      "componentType": 5126,
      "count": 24,
      "max": [
        0.9998360276222229,
        0.9998360276222229,
        0.9998360276222229
      ],
      "min": [
        -1.0001599788665771,
        -1.0001599788665771,
        -1.0001599788665771
      ],
      "bufferView": 80,
      "byteOffset": 0
    },
    {
      "type": "VEC3",
      "componentType": 5126,
      "count": 24,
      "bufferView": 80,
      "byteOffset": 12
    },
    {
      "type": "VEC2",
      "componentType": 5126,
      "count": 24,
      "bufferView": 80,
      "byteOffset": 24
    },
    {
      "type": "VEC3",
      "componentType": 5126,
      "count": 24,
      "max": [
        0.9998360276222229,
        0.9998360276222229,
        0.9998360276222229
      ],
      "min": [
        -1.0001599788665771,
        -1.0001599788665771,
        -1.0001599788665771
      ],
      "bufferView": 81,
      "byteOffset": 0
    },
    {
      "type": "VEC3",
      "componentType": 5126,
      "count": 24,
      "bufferView": 81,
      "byteOffset": 12
    },
    {
      "type": "VEC2",
      "componentType": 5126,
      "count": 24,
      "bufferView": 81,
      "byteOffset": 24
    },
    {
      "type": "VEC3",
      "componentType": 5126,
      "count": 24,
      "max": [
        0.9998360276222229,
        0.9998360276222229,
        0.9998360276222229
      ],
      "min": [
        -1.0001599788665771,
        -1.0001599788665771,
        -1.0001599788665771
      ],
      "bufferView": 82,
      "byteOffset": 0
    },
    {
      "type": "VEC3",
      "componentType": 5126,
      "count": 24,
      "bufferView": 82,
      "byteOffset": 12
    },
    {
      "type": "VEC2",
      "componentType": 5126,
      "count": 24,
      "bufferView": 82,
      "byteOffset": 24
    },
    {
      "type": "VEC3",
      "componentType": 5126,
      "count": 24,
      "max": [
        0.9998360276222229,
        0.9998360276222229,
        0.9998360276222229
      ],
      "min": [
        -1.0001599788665771,
        -1.0001599788665771,
        -1.0001599788665771
      ],
      "bufferView": 83,
      "byteOffset": 0
    },
    {
      "type": "VEC3",
      "componentType": 5126,
      "count": 24,
      "bufferView": 83,
      "byteOffset": 12
    },
    {
      "type": "VEC2",
      "componentType": 5126,
      "count": 24,
      "bufferView": 83,
      "byteOffset": 24
    },
    {
      "type": "VEC3",
      "componentType": 5126,
      "count": 24,
      "max": [
        0.9998360276222229,
        0.9998360276222229,
        0.9998360276222229
      ],
      "min": [
        -1.0001599788665771,
        -1.0001599788665771,
        -1.0001599788665771
      ],
      "bufferView": 84,
      "byteOffset": 0
    },
    {
      "type": "VEC3",
      "componentType": 5126,
      "count": 24,
      "bufferView": 84,
      "byteOffset": 12
    },
    {
      "type": "VEC2",
      "componentType": 5126,
      "count": 24,
      "bufferView": 84,
      "byteOffset": 24
    },
    {
      "type": "VEC3",
      "componentType": 5126,
      "count": 24,
      "max": [
        0.9998360276222229,
        0.9998360276222229,
        0.9998360276222229
      ],
      "min": [
        -1.0001599788665771,
        -1.0001599788665771,
        -1.0001599788665771
      ],
      "bufferView": 85,
      "byteOffset": 0
    },
    {
      "type": "VEC3",
      "componentType": 5126,
      "count": 24,
      "bufferView": 85,
      "byteOffset": 12
    },
    {
      "type": "VEC2",
      "componentType": 5126,
      "count": 24,
      "bufferView": 85,
      "byteOffset": 24
    },
    {
      "type": "VEC3",
      "componentType": 5126,
      "count": 24,
      "max": [
        0.9998360276222229,
        0.9998360276222229,
        0.9998360276222229
      ],
      "min": [
        -1.0001599788665771,
        -1.0001599788665771,
        -1.0001599788665771
      ],
      "bufferView": 86,
      "byteOffset": 0
    },
    {
      "type": "VEC3",
      "componentType": 5126,
      "count": 24,
      "bufferView": 86,
      "byteOffset": 12
    },
    {
      "type": "VEC2",
      "componentType": 5126,
      "count": 24,
      "bufferView": 86,
      "byteOffset": 24
    },
    {
      "type": "VEC3",
      "componentType": 5126,
      "count": 24,
      "max": [
        0.9998360276222229,
        0.9998360276222229,
        0.9998360276222229
      ],
      "min": [
        -1.0001599788665771,
        -1.0001599788665771,
        -1.0001599788665771
      ],
      "bufferView": 87,
      "byteOffset": 0
    },
    {
      "type": "VEC3",
      "componentType": 5126,
      "count": 24,
      "bufferView": 87,
      "byteOffset": 12
    },
    {
      "type": "VEC2",
      "componentType": 5126,
      "count": 24,
      "bufferView": 87,
      "byteOffset": 24
    },
    {
      "type": "VEC3",
      "componentType": 5126,
      "count": 24,
      "max": [
        0.9998360276222229,
        0.9998360276222229,
        0.9998360276222229
      ],
      "min": [
        -1.0001599788665771,
        -1.0001599788665771,
        -1.0001599788665771
      ],
      "bufferView": 88,
      "byteOffset": 0
    },
    {
      "type": "VEC3",
      "componentType": 5126,
      "count": 24,
      "bufferView": 88,
      "byteOffset": 12
    },
    {
      "type": "VEC2",
      "componentType": 5126,
      "count": 24,
      "bufferView": 88,
      "byteOffset": 24
    },
    {
      "type": "VEC3",
      "componentType": 5126,
      "count": 24,
      "max": [
        0.9998360276222229,
        0.9998360276222229,
        0.9998360276222229
      ],
      "min": [
        -1.0001599788665771,
        -1.0001599788665771,
        -1.0001599788665771
      ],
      "bufferView": 89,
      "byteOffset": 0
    },
    {
      "type": "VEC3",
      "componentType": 5126,
      "count": 24,
      "bufferView": 89,
      "byteOffset": 12
    },
    {
      "type": "VEC2",
      "componentType": 5126,
      "count": 24,
      "bufferView": 89,
      "byteOffset": 24
    },
    {
      "type": "SCALAR",
      "componentType": 5126,
      "count": 26,
      "max": [
        0.8333333134651184
      ],
      "min": [
        0
      ],
      "bufferView": 90,
      "byteOffset": 0
    },
    {
      "type": "SCALAR",
      "componentType": 5126,
      "count": 572,
      "bufferView": 90,
      "byteOffset": 104
    }
  ],
  "bufferViews": [
    {
      "buffer": 0,
      "byteOffset": 0,
      "byteLength": 282432,
      "byteStride": 48,
      "target": 34962
    },
    {
      "buffer": 0,
      "byteOffset": 282432,
      "byteLength": 352220,
      "target": 34963
    },
    {
      "buffer": 0,
      "byteOffset": 634652,
      "byteLength": 141216,
      "byteStride": 24,
      "target": 34962
    },
    {
      "buffer": 0,
      "byteOffset": 775868,
      "byteLength": 141216,
      "byteStride": 24,
      "target": 34962
    },
    {
      "buffer": 0,
      "byteOffset": 917084,
      "byteLength": 141216,
      "byteStride": 24,
      "target": 34962
    },
    {
      "buffer": 0,
      "byteOffset": 1058300,
      "byteLength": 141216,
      "byteStride": 24,
      "target": 34962
    },
    {
      "buffer": 0,
      "byteOffset": 1199516,
      "byteLength": 141216,
      "byteStride": 24,
      "target": 34962
    },
    {
      "buffer": 0,
      "byteOffset": 1340732,
      "byteLength": 141216,
      "byteStride": 24,
      "target": 34962
    },
    {
      "buffer": 0,
      "byteOffset": 1481948,
      "byteLength": 141216,
      "byteStride": 24,
      "target": 34962
    },
    {
      "buffer": 0,
      "byteOffset": 1623164,
      "byteLength": 141216,
      "byteStride": 24,
      "target": 34962
    },
    {
      "buffer": 0,
      "byteOffset": 1764380,
      "byteLength": 141216,
      "byteStride": 24,
      "target": 34962
    },
    {
      "buffer": 0,
      "byteOffset": 1905596,
      "byteLength": 141216,
      "byteStride": 24,
      "target": 34962
    },
    {
      "buffer": 0,
      "byteOffset": 2046812,
      "byteLength": 141216,
      "byteStride": 24,
      "target": 34962
    },
    {
      "buffer": 0,
      "byteOffset": 2188028,
      "byteLength": 141216,
      "byteStride": 24,
      "target": 34962
    },
    {
      "buffer": 0,
      "byteOffset": 2329244,
      "byteLength": 141216,
      "byteStride": 24,
      "target": 34962
    },
    {
      "buffer": 0,
      "byteOffset": 2470460,
      "byteLength": 141216,
      "byteStride": 24,
      "target": 34962
    },
    {
      "buffer": 0,
      "byteOffset": 2611676,
      "byteLength": 141216,
      "byteStride": 24,
      "target": 34962
    },
    {
      "buffer": 0,
      "byteOffset": 2752892,
      "byteLength": 141216,
      "byteStride": 24,
      "target": 34962
    },
    {
      "buffer": 0,
      "byteOffset": 2894108,
      "byteLength": 141216,
      "byteStride": 24,
      "target": 34962
    },
    {
      "buffer": 0,
      "byteOffset": 3035324,
      "byteLength": 141216,
      "byteStride": 24,
      "target": 34962
    },
    {
      "buffer": 0,
      "byteOffset": 3176540,
      "byteLength": 141216,
      "byteStride": 24,
      "target": 34962
    },
    {
      "buffer": 0,
      "byteOffset": 3317756,
      "byteLength": 141216,
      "byteStride": 24,
      "target": 34962
    },
    {
      "buffer": 0,
      "byteOffset": 3458972,
      "byteLength": 141216,
      "byteStride": 24,
      "target": 34962
    },
    {
      "buffer": 0,
      "byteOffset": 3600188,
      "byteLength": 141216,
      "byteStride": 24,
      "target": 34962
    },
    {
      "buffer": 0,
      "byteOffset": 3741404,
      "byteLength": 137088,
      "byteStride": 48,
      "target": 34962
    },
    {
      "buffer": 0,
      "byteOffset": 3878492,
      "byteLength": 68544,
      "byteStride": 24,
      "target": 34962
    },
    {
      "buffer": 0,
      "byteOffset": 3947036,
      "byteLength": 68544,
      "byteStride": 24,
      "target": 34962
    },
    {
      "buffer": 0,
      "byteOffset": 4015580,
      "byteLength": 68544,
      "byteStride": 24,
      "target": 34962
    },
    {
      "buffer": 0,
      "byteOffset": 4084124,
      "byteLength": 68544,
      "byteStride": 24,
      "target": 34962
    },
    {
      "buffer": 0,
      "byteOffset": 4152668,
      "byteLength": 68544,
      "byteStride": 24,
      "target": 34962
    },
    {
      "buffer": 0,
      "byteOffset": 4221212,
      "byteLength": 68544,
      "byteStride": 24,
      "target": 34962
    },
    {
      "buffer": 0,
      "byteOffset": 4289756,
      "byteLength": 68544,
      "byteStride": 24,
      "target": 34962
    },
    {
      "buffer": 0,
      "byteOffset": 4358300,
      "byteLength": 68544,
      "byteStride": 24,
      "target": 34962
    },
    {
      "buffer": 0,
      "byteOffset": 4426844,
      "byteLength": 68544,
      "byteStride": 24,
      "target": 34962
    },
    {
      "buffer": 0,
      "byteOffset": 4495388,
      "byteLength": 68544,
      "byteStride": 24,
      "target": 34962
    },
    {
      "buffer": 0,
      "byteOffset": 4563932,
      "byteLength": 68544,
      "byteStride": 24,
      "target": 34962
    },
    {
      "buffer": 0,
      "byteOffset": 4632476,
      "byteLength": 68544,
      "byteStride": 24,
      "target": 34962
    },
    {
      "buffer": 0,
      "byteOffset": 4701020,
      "byteLength": 68544,
      "byteStride": 24,
      "target": 34962
    },
    {
      "buffer": 0,
      "byteOffset": 4769564,
      "byteLength": 68544,
      "byteStride": 24,
      "target": 34962
    },
    {
      "buffer": 0,
      "byteOffset": 4838108,
      "byteLength": 68544,
      "byteStride": 24,
      "target": 34962
    },
    {
      "buffer": 0,
      "byteOffset": 4906652,
      "byteLength": 68544,
      "byteStride": 24,
      "target": 34962
    },
    {
      "buffer": 0,
      "byteOffset": 4975196,
      "byteLength": 68544,
      "byteStride": 24,
      "target": 34962
    },
    {
      "buffer": 0,
      "byteOffset": 5043740,
      "byteLength": 68544,
      "byteStride": 24,
      "target": 34962
    },
    {
      "buffer": 0,
      "byteOffset": 5112284,
      "byteLength": 68544,
      "byteStride": 24,
      "target": 34962
    },
    {
      "buffer": 0,
      "byteOffset": 5180828,
      "byteLength": 68544,
      "byteStride": 24,
      "target": 34962
    },
    {
      "buffer": 0,
      "byteOffset": 5249372,
      "byteLength": 68544,
      "byteStride": 24,
      "target": 34962
    },
    {
      "buffer": 0,
      "byteOffset": 5317916,
      "byteLength": 68544,
      "byteStride": 24,
      "target": 34962
    },
    {
      "buffer": 0,
      "byteOffset": 5386460,
      "byteLength": 274512,
      "byteStride": 48,
      "target": 34962
    },
    {
      "buffer": 0,
      "byteOffset": 5660972,
      "byteLength": 137256,
      "byteStride": 24,
      "target": 34962
    },
    {
      "buffer": 0,
      "byteOffset": 5798228,
      "byteLength": 137256,
      "byteStride": 24,
      "target": 34962
    },
    {
      "buffer": 0,
      "byteOffset": 5935484,
      "byteLength": 137256,
      "byteStride": 24,
      "target": 34962
    },
    {
      "buffer": 0,
      "byteOffset": 6072740,
      "byteLength": 137256,
      "byteStride": 24,
      "target": 34962
    },
    {
      "buffer": 0,
      "byteOffset": 6209996,
      "byteLength": 137256,
      "byteStride": 24,
      "target": 34962
    },
    {
      "buffer": 0,
      "byteOffset": 6347252,
      "byteLength": 137256,
      "byteStride": 24,
      "target": 34962
    },
    {
      "buffer": 0,
      "byteOffset": 6484508,
      "byteLength": 137256,
      "byteStride": 24,
      "target": 34962
    },
    {
      "buffer": 0,
      "byteOffset": 6621764,
      "byteLength": 137256,
      "byteStride": 24,
      "target": 34962
    },
    {
      "buffer": 0,
      "byteOffset": 6759020,
      "byteLength": 137256,
      "byteStride": 24,
      "target": 34962
    },
    {
      "buffer": 0,
      "byteOffset": 6896276,
      "byteLength": 137256,
      "byteStride": 24,
      "target": 34962
    },
    {
      "buffer": 0,
      "byteOffset": 7033532,
      "byteLength": 137256,
      "byteStride": 24,
      "target": 34962
    },
    {
      "buffer": 0,
      "byteOffset": 7170788,
      "byteLength": 137256,
      "byteStride": 24,
      "target": 34962
    },
    {
      "buffer": 0,
      "byteOffset": 7308044,
      "byteLength": 137256,
      "byteStride": 24,
      "target": 34962
    },
    {
      "buffer": 0,
      "byteOffset": 7445300,
      "byteLength": 137256,
      "byteStride": 24,
      "target": 34962
    },
    {
      "buffer": 0,
      "byteOffset": 7582556,
      "byteLength": 137256,
      "byteStride": 24,
      "target": 34962
    },
    {
      "buffer": 0,
      "byteOffset": 7719812,
      "byteLength": 137256,
      "byteStride": 24,
      "target": 34962
    },
    {
      "buffer": 0,
      "byteOffset": 7857068,
      "byteLength": 137256,
      "byteStride": 24,
      "target": 34962
    },
    {
      "buffer": 0,
      "byteOffset": 7994324,
      "byteLength": 137256,
      "byteStride": 24,
      "target": 34962
    },
    {
      "buffer": 0,
      "byteOffset": 8131580,
      "byteLength": 137256,
      "byteStride": 24,
      "target": 34962
    },
    {
      "buffer": 0,
      "byteOffset": 8268836,
      "byteLength": 137256,
      "byteStride": 24,
      "target": 34962
    },
    {
      "buffer": 0,
      "byteOffset": 8406092,
      "byteLength": 137256,
      "byteStride": 24,
      "target": 34962
    },
    {
      "buffer": 0,
      "byteOffset": 8543348,
      "byteLength": 137256,
      "byteStride": 24,
      "target": 34962
    },
    {
      "buffer": 0,
      "byteOffset": 8680604,
      "byteLength": 142720,
      "byteStride": 32,
      "target": 34962
    },
    {
      "buffer": 0,
      "byteOffset": 8823324,
      "byteLength": 192736,
      "byteStride": 32,
      "target": 34962
    },
    {
      "buffer": 0,
      "byteOffset": 9016060,
      "byteLength": 148256,
      "byteStride": 32,
      "target": 34962
    },
    {
      "buffer": 0,
      "byteOffset": 9164316,
      "byteLength": 198272,
      "byteStride": 32,
      "target": 34962
    },
    {
      "buffer": 0,
      "byteOffset": 9362588,
      "byteLength": 157248,
      "byteStride": 32,
      "target": 34962
    },
    {
      "buffer": 0,
      "byteOffset": 9519836,
      "byteLength": 112128,
      "byteStride": 32,
      "target": 34962
    },
    {
      "buffer": 0,
      "byteOffset": 9631964,
      "byteLength": 214560,
      "byteStride": 32,
      "target": 34962
    },
    {
      "buffer": 0,
      "byteOffset": 9846524,
      "byteLength": 167136,
      "byteStride": 32,
      "target": 34962
    },
    {
      "buffer": 0,
      "byteOffset": 10013660,
      "byteLength": 146144,
      "byteStride": 32,
      "target": 34962
    },
    {
      "buffer": 0,
      "byteOffset": 10159804,
      "byteLength": 146144,
      "byteStride": 32,
      "target": 34962
    },
    {
      "buffer": 0,
      "byteOffset": 10305948,
      "byteLength": 768,
      "byteStride": 32,
      "target": 34962
    },
    {
      "buffer": 0,
      "byteOffset": 10306716,
      "byteLength": 768,
      "byteStride": 32,
      "target": 34962
    },
    {
      "buffer": 0,
      "byteOffset": 10307484,
      "byteLength": 768,
      "byteStride": 32,
      "target": 34962
    },
    {
      "buffer": 0,
      "byteOffset": 10308252,
      "byteLength": 768,
      "byteStride": 32,
      "target": 34962
    },
    {
      "buffer": 0,
      "byteOffset": 10309020,
      "byteLength": 768,
      "byteStride": 32,
      "target": 34962
    },
    {
      "buffer": 0,
      "byteOffset": 10309788,
      "byteLength": 768,
      "byteStride": 32,
      "target": 34962
    },
    {
      "buffer": 0,
      "byteOffset": 10310556,
      "byteLength": 768,
      "byteStride": 32,
      "target": 34962
    },
    {
      "buffer": 0,
      "byteOffset": 10311324,
      "byteLength": 768,
      "byteStride": 32,
      "target": 34962
    },
    {
      "buffer": 0,
      "byteOffset": 10312092,
      "byteLength": 768,
      "byteStride": 32,
      "target": 34962
    },
    {
      "buffer": 0,
      "byteOffset": 10312860,
      "byteLength": 768,
      "byteStride": 32,
      "target": 34962
    },
    {
      "buffer": 0,
      "byteOffset": 10313628,
      "byteLength": 2392
    }
  ],
  "samplers": [
    {
      "magFilter": 9729,
      "minFilter": 9987,
      "wrapS": 10497,
      "wrapT": 10497
    }
  ],
  "textures": [
    {
      "source": 0,
      "sampler": 0
    },
    {
      "source": 1,
      "sampler": 0
    },
    {
      "source": 2,
      "sampler": 0
    },
    {
      "source": 3,
      "sampler": 0
    },
    {
      "source": 4,
      "sampler": 0
    },
    {
      "source": 5,
      "sampler": 0
    }
  ],
  "images": [
    {
      "name": "Ventricles_diffuse.jpeg",
      "mimeType": "image/jpeg",
      "uri": "images/Ventricles_diffuse.jpg"
    },
    {
      "name": "Ventricles_normal.jpeg",
      "mimeType": "image/jpeg",
      "uri": "images/Ventricles_normal.jpg"
    },
    {
      "name": "left_atrium_diffuse.jpeg",
      "mimeType": "image/jpeg",
      "uri": "images/left_atrium_diffuse.jpg"
    },
    {
      "name": "left_atrium_normal.jpeg",
      "mimeType": "image/jpeg",
      "uri": "images/left_atrium_normal.jpg"
    },
    {
      "name": "righta_atrium_diffuse.jpeg",
      "mimeType": "image/jpeg",
      "uri": "images/righta_atrium_diffuse.jpg"
    },
    {
      "name": "righta_atrium_normal.jpeg",
      "mimeType": "image/jpeg",
      "uri": "images/righta_atrium_normal.jpg"
    }
  ],
  "buffers": [
    {
      "uri": "Labelled_3d_Animated_Realistic_Heart.bin",
      "byteLength": 10316020
    }
  ],
  "materials": [
    {
      "name": "Ventricles",
      "doubleSided": true,
      "pbrMetallicRoughness": {
        "roughnessFactor": 0.05,
        "metallicFactor": 0.15,
        "baseColorTexture": {
          "index": 0
        }
      },
      "normalTexture": {
        "index": 1
      },
      "extensions": {
        "KHR_materials_specular": {
          "specularColorFactor": [
            0.4,
            0.4,
            0.4
          ]
        }
      }
    },
    {
      "name": "Left atrium",
      "doubleSided": true,
      "pbrMetallicRoughness": {
        "roughnessFactor": 0.01,
        "metallicFactor": 0.2,
        "baseColorTexture": {
          "index": 2
        }
      },
      "normalTexture": {
        "index": 3
      },
      "extensions": {
        "KHR_materials_specular": {
          "specularColorFactor": [
            0.4,
            0.4,
            0.4
          ]
        }
      }
    },
    {
      "name": "Right atrium",
      "doubleSided": true,
      "pbrMetallicRoughness": {
        "roughnessFactor": 0,
        "metallicFactor": 0.13,
        "baseColorTexture": {
          "index": 4
        }
      },
      "normalTexture": {
        "index": 5
      },
      "extensions": {
        "KHR_materials_specular": {
          "specularColorFactor": [
            0.4,
            0.4,
            0.4
          ]
        }
      }
    },
    {
      "name": "LA Label",
      "doubleSided": true,
      "pbrMetallicRoughness": {
        "baseColorFactor": [
          0.24228112246555486,
          0.09084171118340768,
          0.15896083506088032,
          1
        ],
        "metallicFactor": 0
      },
      "emissiveFactor": [
        0.24228112246555486,
        0.09084171118340768,
        0.15896083506088032
      ],
      "extensions": {
        "KHR_materials_specular": {
          "specularColorFactor": [
            0.2,
            0.2,
            0.2
          ]
        }
      }
    },
    {
      "name": "Right atrium. label",
      "doubleSided": true,
      "pbrMetallicRoughness": {
        "baseColorFactor": [
          0.4969329950608704,
          0.7529422167760776,
          0.9559733532492861,
          1
        ],
        "metallicFactor": 0
      },
      "emissiveFactor": [
        0.4969329950608704,
        0.7529422167760776,
        0.9559733532492861
      ],
      "extensions": {
        "KHR_materials_specular": {
          "specularColorFactor": [
            0.2,
            0.2,
            0.2
          ]
        }
      }
    },
    {
      "name": "LV Label",
      "doubleSided": true,
      "pbrMetallicRoughness": {
        "baseColorFactor": [
          0.83879901174074,
          0.83879901174074,
          0.83879901174074,
          1
        ],
        "metallicFactor": 0
      },
      "emissiveFactor": [
        0.83879901174074,
        0.83879901174074,
        0.83879901174074
      ],
      "extensions": {
        "KHR_materials_specular": {
          "specularColorFactor": [
            0.2,
            0.2,
            0.2
          ]
        }
      }
    },
    {
      "name": "RV Label",
      "doubleSided": true,
      "pbrMetallicRoughness": {
        "baseColorFactor": [
          0.06124605423161763,
          0.4620769996544069,
          0.6375968739940326,
          1
        ],
        "metallicFactor": 0
      },
      "emissiveFactor": [
        0.06124605423161763,
        0.4620769996544069,
        0.6375968739940326
      ],
      "extensions": {
        "KHR_materials_specular": {
          "specularColorFactor": [
            0.2,
            0.2,
            0.2
          ]
        }
      }
    },
    {
      "name": "Venacava",
      "doubleSided": true,
      "pbrMetallicRoughness": {
        "baseColorFactor": [
          1,
          0.07421356838014966,
          0,
          1
        ],
        "metallicFactor": 0
      },
      "emissiveFactor": [
        1,
        0.07421356838014966,
        0
      ],
      "extensions": {
        "KHR_materials_specular": {
          "specularColorFactor": [
            0.2,
            0.2,
            0.2
          ]
        }
      }
    },
    {
      "name": "AortaLabel",
      "doubleSided": true,
      "pbrMetallicRoughness": {
        "baseColorFactor": [
          0.9734452903984122,
          0.7011018919329731,
          0.4735314961480094,
          1
        ],
        "metallicFactor": 0
      },
      "emissiveFactor": [
        0.9734452903984122,
        0.7011018919329731,
        0.4735314961480094
      ],
      "extensions": {
        "KHR_materials_specular": {
          "specularColorFactor": [
            0.2,
            0.2,
            0.2
          ]
        }
      }
    },
    {
      "name": "Pulmonary Artery",
      "doubleSided": true,
      "pbrMetallicRoughness": {
        "baseColorFactor": [
          1,
          0.5088813208549338,
          0.14126329114027164,
          1
        ],
        "metallicFactor": 0
      },
      "emissiveFactor": [
        1,
        0.5088813208549338,
        0.14126329114027164
      ],
      "extensions": {
        "KHR_materials_specular": {
          "specularColorFactor": [
            0.2,
            0.2,
            0.2
          ]
        }
      }
    },
    {
      "name": "PV Label",
      "doubleSided": true,
      "pbrMetallicRoughness": {
        "baseColorFactor": [
          0.022173884793387385,
          0.5711248294648731,
          0.4125426134839036,
          1
        ],
        "metallicFactor": 0
      },
      "emissiveFactor": [
        0.022173884793387385,
        0.5711248294648731,
        0.4125426134839036
      ],
      "extensions": {
        "KHR_materials_specular": {
          "specularColorFactor": [
            0.2,
            0.2,
            0.2
          ]
        }
      }
    },
    {
      "name": "Heart Valve1",
      "doubleSided": true,
      "pbrMetallicRoughness": {
        "baseColorFactor": [
          0.5028864580325682,
          0.15896083506088038,
          0.8796223968878315,
          1
        ],
        "metallicFactor": 0
      },
      "emissiveFactor": [
        0.5028864580325679,
        0.15896083506088024,
        0.8796223968878315
      ],
      "extensions": {
        "KHR_materials_specular": {
          "specularColorFactor": [
            0.2,
            0.2,
            0.2
          ]
        }
      }
    },
    {
      "name": "HeartValve Label",
      "doubleSided": true,
      "pbrMetallicRoughness": {
        "baseColorFactor": [
          0.9473065367331996,
          0.6444796819705821,
          0.18116424424986022,
          1
        ],
        "metallicFactor": 0
      },
      "emissiveFactor": [
        0.9473065367331996,
        0.6444796819705821,
        0.18116424424986022
      ],
      "extensions": {
        "KHR_materials_specular": {
          "specularColorFactor": [
            0.2,
            0.2,
            0.2
          ]
        }
      }
    }
  ],
  "meshes": [
    {
      "name": "0",
      "primitives": [
        {
          "attributes": {
            "POSITION": 0,
            "NORMAL": 1,
            "TANGENT": 2,
            "TEXCOORD_0": 3
          },
          "mode": 4,
          "material": 0,
          "indices": 4,
          "targets": [
            {
              "POSITION": 27,
              "NORMAL": 28
            },
            {
              "POSITION": 29,
              "NORMAL": 30
            },
            {
              "POSITION": 31,
              "NORMAL": 32
            },
            {
              "POSITION": 33,
              "NORMAL": 34
            },
            {
              "POSITION": 35,
              "NORMAL": 36
            },
            {
              "POSITION": 37,
              "NORMAL": 38
            },
            {
              "POSITION": 39,
              "NORMAL": 40
            },
            {
              "POSITION": 41,
              "NORMAL": 42
            },
            {
              "POSITION": 43,
              "NORMAL": 44
            },
            {
              "POSITION": 45,
              "NORMAL": 46
            },
            {
              "POSITION": 47,
              "NORMAL": 48
            },
            {
              "POSITION": 49,
              "NORMAL": 50
            },
            {
              "POSITION": 51,
              "NORMAL": 52
            },
            {
              "POSITION": 53,
              "NORMAL": 54
            },
            {
              "POSITION": 55,
              "NORMAL": 56
            },
            {
              "POSITION": 57,
              "NORMAL": 58
            },
            {
              "POSITION": 59,
              "NORMAL": 60
            },
            {
              "POSITION": 61,
              "NORMAL": 62
            },
            {
              "POSITION": 63,
              "NORMAL": 64
            },
            {
              "POSITION": 65,
              "NORMAL": 66
            },
            {
              "POSITION": 67,
              "NORMAL": 68
            },
            {
              "POSITION": 69,
              "NORMAL": 70
            }
          ]
        }
      ],
      "weights": [
        0,
        0,
        0,
        0,
        0,
        0,
        0,
        0,
        0,
        0,
        0,
        0,
        0,
        0,
        0,
        0,
        0,
        0,
        0,
        0,
        0,
        0
      ],
      "extras": {
        "targetNames": [
          "",
          "",
          "",
          "",
          "",
          "",
          "",
          "",
          "",
          "",
          "",
          "",
          "",
          "",
          "",
          "",
          "",
          "",
          "",
          "",
          "",
          ""
        ]
      }
    },
    {
      "name": "1",
      "primitives": [
        {
          "attributes": {
            "POSITION": 71,
            "NORMAL": 72,
            "TANGENT": 73,
            "TEXCOORD_0": 74
          },
          "mode": 4,
          "material": 1,
          "indices": 5,
          "targets": [
            {
              "POSITION": 75,
              "NORMAL": 76
            },
            {
              "POSITION": 77,
              "NORMAL": 78
            },
            {
              "POSITION": 79,
              "NORMAL": 80
            },
            {
              "POSITION": 81,
              "NORMAL": 82
            },
            {
              "POSITION": 83,
              "NORMAL": 84
            },
            {
              "POSITION": 85,
              "NORMAL": 86
            },
            {
              "POSITION": 87,
              "NORMAL": 88
            },
            {
              "POSITION": 89,
              "NORMAL": 90
            },
            {
              "POSITION": 91,
              "NORMAL": 92
            },
            {
              "POSITION": 93,
              "NORMAL": 94
            },
            {
              "POSITION": 95,
              "NORMAL": 96
            },
            {
              "POSITION": 97,
              "NORMAL": 98
            },
            {
              "POSITION": 99,
              "NORMAL": 100
            },
            {
              "POSITION": 101,
              "NORMAL": 102
            },
            {
              "POSITION": 103,
              "NORMAL": 104
            },
            {
              "POSITION": 105,
              "NORMAL": 106
            },
            {
              "POSITION": 107,
              "NORMAL": 108
            },
            {
              "POSITION": 109,
              "NORMAL": 110
            },
            {
              "POSITION": 111,
              "NORMAL": 112
            },
            {
              "POSITION": 113,
              "NORMAL": 114
            },
            {
              "POSITION": 115,
              "NORMAL": 116
            },
            {
              "POSITION": 117,
              "NORMAL": 118
            }
          ]
        }
      ],
      "weights": [
        0,
        0,
        0,
        0,
        0,
        0,
        0,
        0,
        0,
        0,
        0,
        0,
        0,
        0,
        0,
        0,
        0,
        0,
        0,
        0,
        0,
        0
      ],
      "extras": {
        "targetNames": [
          "",
          "",
          "",
          "",
          "",
          "",
          "",
          "",
          "",
          "",
          "",
          "",
          "",
          "",
          "",
          "",
          "",
          "",
          "",
          "",
          "",
          ""
        ]
      }
    },
    {
      "name": "2",
      "primitives": [
        {
          "attributes": {
            "POSITION": 119,
            "NORMAL": 120,
            "TANGENT": 121,
            "TEXCOORD_0": 122
          },
          "mode": 4,
          "material": 2,
          "indices": 6,
          "targets": [
            {
              "POSITION": 123,
              "NORMAL": 124
            },
            {
              "POSITION": 125,
              "NORMAL": 126
            },
            {
              "POSITION": 127,
              "NORMAL": 128
            },
            {
              "POSITION": 129,
              "NORMAL": 130
            },
            {
              "POSITION": 131,
              "NORMAL": 132
            },
            {
              "POSITION": 133,
              "NORMAL": 134
            },
            {
              "POSITION": 135,
              "NORMAL": 136
            },
            {
              "POSITION": 137,
              "NORMAL": 138
            },
            {
              "POSITION": 139,
              "NORMAL": 140
            },
            {
              "POSITION": 141,
              "NORMAL": 142
            },
            {
              "POSITION": 143,
              "NORMAL": 144
            },
            {
              "POSITION": 145,
              "NORMAL": 146
            },
            {
              "POSITION": 147,
              "NORMAL": 148
            },
            {
              "POSITION": 149,
              "NORMAL": 150
            },
            {
              "POSITION": 151,
              "NORMAL": 152
            },
            {
              "POSITION": 153,
              "NORMAL": 154
            },
            {
              "POSITION": 155,
              "NORMAL": 156
            },
            {
              "POSITION": 157,
              "NORMAL": 158
            },
            {
              "POSITION": 159,
              "NORMAL": 160
            },
            {
              "POSITION": 161,
              "NORMAL": 162
            },
            {
              "POSITION": 163,
              "NORMAL": 164
            },
            {
              "POSITION": 165,
              "NORMAL": 166
            }
          ]
        }
      ],
      "weights": [
        0,
        0,
        0,
        0,
        0,
        0,
        0,
        0,
        0,
        0,
        0,
        0,
        0,
        0,
        0,
        0,
        0,
        0,
        0,
        0,
        0,
        0
      ],
      "extras": {
        "targetNames": [
          "",
          "",
          "",
          "",
          "",
          "",
          "",
          "",
          "",
          "",
          "",
          "",
          "",
          "",
          "",
          "",
          "",
          "",
          "",
          "",
          "",
          ""
        ]
      }
    },
    {
      "name": "la_LA Label_0",
      "primitives": [
        {
          "attributes": {
            "POSITION": 167,
            "NORMAL": 168,
            "TEXCOORD_0": 169
          },
          "mode": 4,
          "material": 3,
          "indices": 7
        }
      ]
    },
    {
      "name": "ra_Right atrium. label_0",
      "primitives": [
        {
          "attributes": {
            "POSITION": 170,
            "NORMAL": 171,
            "TEXCOORD_0": 172
          },
          "mode": 4,
          "material": 4,
          "indices": 8
        }
      ]
    },
    {
      "name": "lv_LV Label_0",
      "primitives": [
        {
          "attributes": {
            "POSITION": 173,
            "NORMAL": 174,
            "TEXCOORD_0": 175
          },
          "mode": 4,
          "material": 5,
          "indices": 9
        }
      ]
    },
    {
      "name": "rv_RV Label_0",
      "primitives": [
        {
          "attributes": {
            "POSITION": 176,
            "NORMAL": 177,
            "TEXCOORD_0": 178
          },
          "mode": 4,
          "material": 6,
          "indices": 10
        }
      ]
    },
    {
      "name": "vena cava_Venacava_0",
      "primitives": [
        {
          "attributes": {
            "POSITION": 179,
            "NORMAL": 180,
            "TEXCOORD_0": 181
          },
          "mode": 4,
          "material": 7,
          "indices": 11
        }
      ]
    },
    {
      "name": "aorta_AortaLabel_0",
      "primitives": [
        {
          "attributes": {
            "POSITION": 182,
            "NORMAL": 183,
            "TEXCOORD_0": 184
          },
          "mode": 4,
          "material": 8,
          "indices": 12
        }
      ]
    },
    {
      "name": "pa_Pulmonary Artery_0",
      "primitives": [
        {
          "attributes": {
            "POSITION": 185,
            "NORMAL": 186,
            "TEXCOORD_0": 187
          },
          "mode": 4,
          "material": 9,
          "indices": 13
        }
      ]
    },
    {
      "name": "pv_PV Label_0",
      "primitives": [
        {
          "attributes": {
            "POSITION": 188,
            "NORMAL": 189,
            "TEXCOORD_0": 190
          },
          "mode": 4,
          "material": 10,
          "indices": 14
        }
      ]
    },
    {
      "name": "hv.001_Heart Valve1_0",
      "primitives": [
        {
          "attributes": {
            "POSITION": 191,
            "NORMAL": 192,
            "TEXCOORD_0": 193
          },
          "mode": 4,
          "material": 11,
          "indices": 15
        }
      ]
    },
    {
      "name": "hv_HeartValve Label_0",
      "primitives": [
        {
          "attributes": {
            "POSITION": 194,
            "NORMAL": 195,
            "TEXCOORD_0": 196
          },
          "mode": 4,
          "material": 12,
          "indices": 16
        }
      ]
    },
    {
      "name": "Cube_Venacava_0",
      "primitives": [
        {
          "attributes": {
            "POSITION": 197,
            "NORMAL": 198,
            "TEXCOORD_0": 199
          },
          "mode": 4,
          "material": 7,
          "indices": 17
        }
      ]
    },
    {
      "name": "Cube.001_AortaLabel_0",
      "primitives": [
        {
          "attributes": {
            "POSITION": 200,
            "NORMAL": 201,
            "TEXCOORD_0": 202
          },
          "mode": 4,
          "material": 8,
          "indices": 18
        }
      ]
    },
    {
      "name": "Cube.002_LA Label_0",
      "primitives": [
        {
          "attributes": {
            "POSITION": 203,
            "NORMAL": 204,
            "TEXCOORD_0": 205
          },
          "mode": 4,
          "material": 3,
          "indices": 19
        }
      ]
    },
    {
      "name": "Cube.003_PV Label_0",
      "primitives": [
        {
          "attributes": {
            "POSITION": 206,
            "NORMAL": 207,
            "TEXCOORD_0": 208
          },
          "mode": 4,
          "material": 10,
          "indices": 20
        }
      ]
    },
    {
      "name": "Cube.004_Pulmonary Artery_0",
      "primitives": [
        {
          "attributes": {
            "POSITION": 209,
            "NORMAL": 210,
            "TEXCOORD_0": 211
          },
          "mode": 4,
          "material": 9,
          "indices": 21
        }
      ]
    },
    {
      "name": "Cube.005_Right atrium. label_0",
      "primitives": [
        {
          "attributes": {
            "POSITION": 212,
            "NORMAL": 213,
            "TEXCOORD_0": 214
          },
          "mode": 4,
          "material": 4,
          "indices": 22
        }
      ]
    },
    {
      "name": "Cube.006_Heart Valve1_0",
      "primitives": [
        {
          "attributes": {
            "POSITION": 215,
            "NORMAL": 216,
            "TEXCOORD_0": 217
          },
          "mode": 4,
          "material": 11,
          "indices": 23
        }
      ]
    },
    {
      "name": "Cube.007_HeartValve Label_0",
      "primitives": [
        {
          "attributes": {
            "POSITION": 218,
            "NORMAL": 219,
            "TEXCOORD_0": 220
          },
          "mode": 4,
          "material": 12,
          "indices": 24
        }
      ]
    },
    {
      "name": "Cube.008_RV Label_0",
      "primitives": [
        {
          "attributes": {
            "POSITION": 221,
            "NORMAL": 222,
            "TEXCOORD_0": 223
          },
          "mode": 4,
          "material": 6,
          "indices": 25
        }
      ]
    },
    {
      "name": "Cube.009_LV Label_0",
      "primitives": [
        {
          "attributes": {
            "POSITION": 224,
            "NORMAL": 225,
            "TEXCOORD_0": 226
          },
          "mode": 4,
          "material": 5,
          "indices": 26
        }
      ]
    }
  ],
  "nodes": [
    {
      "name": "3c145c723a8f4e00a7f807a6efbbe3f8.fbx",
      "rotation": [
        0.7071067811865475,
        0,
        0,
        0.7071067811865476
      ],
      "children": [
        1
      ]
    },
    {
      "name": "Group_2",
      "children": [
        2
      ]
    },
    {
      "name": "RootNode",
      "children": [
        3,
        38,
        41,
        44,
        47,
        50,
        53,
        56,
        59,
        62,
        65
      ]
    },
    {
      "name": "Heart_New",
      "children": [
        4,
        8,
        11,
        14,
        17,
        20,
        23,
        26,
        29,
        32,
        35
      ]
    },
    {
      "name": "Heart_New",
      "children": [
        5,
        6,
        7
      ]
    },
    {
      "name": "0",
      "mesh": 0
    },
    {
      "name": "1",
      "mesh": 1
    },
    {
      "name": "2",
      "mesh": 2
    },
    {
      "name": "la",
      "translation": [
        110.88999938964844,
        97.50189971923828,
        -11.906900405883789
      ],
      "scale": [
        35.21989822387695,
        35.2198982238772,
        35.2198982238772
      ],
      "children": [
        9
      ]
    },
    {
      "name": "la",
      "children": [
        10
      ]
    },
    {
      "name": "la_LA Label_0",
      "mesh": 3
    },
    {
      "name": "ra",
      "translation": [
        -314.989990234375,
        27.529300689697266,
        -7.862860229579383e-7
      ],
      "scale": [
        35.21989822387695,
        35.2198982238772,
        35.2198982238772
      ],
      "children": [
        12
      ]
    },
    {
      "name": "ra",
      "children": [
        13
      ]
    },
    {
      "name": "ra_Right atrium. label_0",
      "mesh": 4
    },
    {
      "name": "lv",
      "translation": [
        128.1699981689453,
        -132.58799743652344,
        0.0000037869499465159606
      ],
      "scale": [
        35.21989822387695,
        35.2198982238772,
        35.2198982238772
      ],
      "children": [
        15
      ]
    },
    {
      "name": "lv",
      "children": [
        16
      ]
    },
    {
      "name": "lv_LV Label_0",
      "mesh": 5
    },
    {
      "name": "rv",
      "translation": [
        -305.53399658203125,
        -119.3499984741211,
        0.000003408860038689454
      ],
      "scale": [
        35.21989822387695,
        35.2198982238772,
        35.2198982238772
      ],
      "children": [
        18
      ]
    },
    {
      "name": "rv",
      "children": [
        19
      ]
    },
    {
      "name": "rv_RV Label_0",
      "mesh": 6
    },
    {
      "name": "vena cava",
      "translation": [
        -86.28700256347656,
        187.4720001220703,
        -0.000005354530003387481
      ],
      "scale": [
        35.21989822387695,
        35.2198982238772,
        35.2198982238772
      ],
      "children": [
        21
      ]
    },
    {
      "name": "vena cava",
      "children": [
        22
      ]
    },
    {
      "name": "vena cava_Venacava_0",
      "mesh": 7
    },
    {
      "name": "aorta",
      "translation": [
        55.67570114135742,
        166.5290069580078,
        -0.000004756359885504935
      ],
      "scale": [
        35.21989822387695,
        35.2198982238772,
        35.2198982238772
      ],
      "children": [
        24
      ]
    },
    {
      "name": "aorta",
      "children": [
        25
      ]
    },
    {
      "name": "aorta_AortaLabel_0",
      "mesh": 8
    },
    {
      "name": "pa",
      "translation": [
        -342.93701171875,
        117.35900115966797,
        28.45490074157715
      ],
      "scale": [
        35.21989822387695,
        35.2198982238772,
        35.2198982238772
      ],
      "children": [
        27
      ]
    },
    {
      "name": "pa",
      "children": [
        28
      ]
    },
    {
      "name": "pa_Pulmonary Artery_0",
      "mesh": 9
    },
    {
      "name": "pv",
      "translation": [
        136.9949951171875,
        42.028099060058594,
        -0.000001200399992740131
      ],
      "scale": [
        35.21989822387695,
        35.2198982238772,
        35.2198982238772
      ],
      "children": [
        30
      ]
    },
    {
      "name": "pv",
      "children": [
        31
      ]
    },
    {
      "name": "pv_PV Label_0",
      "mesh": 10
    },
    {
      "name": "hv.001",
      "translation": [
        -268.0889892578125,
        -44.20830154418945,
        60.264801025390625
      ],
      "scale": [
        35.21989822387695,
        35.2198982238772,
        35.2198982238772
      ],
      "children": [
        33
      ]
    },
    {
      "name": "hv.001",
      "children": [
        34
      ]
    },
    {
      "name": "hv.001_Heart Valve1_0",
      "mesh": 11
    },
    {
      "name": "hv",
      "translation": [
        61.62649917602539,
        -24.93950080871582,
        105.625
      ],
      "scale": [
        35.21989822387695,
        35.2198982238772,
        35.2198982238772
      ],
      "children": [
        36
      ]
    },
    {
      "name": "hv",
      "children": [
        37
      ]
    },
    {
      "name": "hv_HeartValve Label_0",
      "mesh": 12
    },
    {
      "name": "Cube",
      "translation": [
        -62.020999908447266,
        136.66700744628906,
        -7.793179988861084
      ],
      "rotation": [
        -0.646005521878984,
        -0.10944959098039761,
        0.0956850462714547,
        0.7493611083044335
      ],
      "scale": [
        0.9905138448796863,
        0.990513731643959,
        49.91165969427695
      ],
      "children": [
        39
      ]
    },
    {
      "name": "Cube",
      "children": [
        40
      ]
    },
    {
      "name": "Cube_Venacava_0",
      "mesh": 13
    },
    {
      "name": "Cube.001",
      "translation": [
        11.548299789428711,
        126.0270004272461,
        1.6309900283813477
      ],
      "rotation": [
        -0.6248283865350642,
        0.19721078648897294,
        -0.2565969724102743,
        0.710531834343311
      ],
      "scale": [
        0.9905135661757621,
        0.9905135973120103,
        59.794949717925036
      ],
      "children": [
        42
      ]
    },
    {
      "name": "Cube.001",
      "children": [
        43
      ]
    },
    {
      "name": "Cube.001_AortaLabel_0",
      "mesh": 14
    },
    {
      "name": "Cube.002",
      "translation": [
        61.6614990234375,
        97.00789642333984,
        -21.10300064086914
      ],
      "rotation": [
        -0.5563009594288452,
        0.31358554936465666,
        -0.434354746136433,
        0.635239785315848
      ],
      "scale": [
        0.9905137609939154,
        0.9905141182897081,
        51.581127120345094
      ],
      "children": [
        45
      ]
    },
    {
      "name": "Cube.002",
      "children": [
        46
      ]
    },
    {
      "name": "Cube.002_LA Label_0",
      "mesh": 15
    },
    {
      "name": "Cube.003",
      "translation": [
        89.70210266113281,
        59.92399978637695,
        -7.793190002441406
      ],
      "rotation": [
        -0.5804027870106436,
        -0.46312844096842304,
        0.34540850759743585,
        0.5738795713779591
      ],
      "scale": [
        0.9905137499096827,
        0.990513646571613,
        46.69324175846542
      ],
      "children": [
        48
      ]
    },
    {
      "name": "Cube.003",
      "children": [
        49
      ]
    },
    {
      "name": "Cube.003_PV Label_0",
      "mesh": 16
    },
    {
      "name": "Cube.004",
      "translation": [
        -44.51029968261719,
        92.89029693603516,
        27.59309959411621
      ],
      "rotation": [
        -0.5783178122349333,
        -0.3963312054707654,
        0.3388656694591196,
        0.6274076308281326
      ],
      "scale": [
        0.9905136839603742,
        0.990513905751309,
        49.91160006240267
      ],
      "children": [
        51
      ]
    },
    {
      "name": "Cube.004",
      "children": [
        52
      ]
    },
    {
      "name": "Cube.004_Pulmonary Artery_0",
      "mesh": 17
    },
    {
      "name": "Cube.005",
      "translation": [
        -107.60099792480469,
        33.50389862060547,
        -7.793190002441406
      ],
      "rotation": [
        -0.4613810241237597,
        -0.4652204461887309,
        0.514227917648394,
        0.5534139546910561
      ],
      "scale": [
        0.990513602381113,
        0.990513602318213,
        34.75600109546911
      ],
      "children": [
        54
      ]
    },
    {
      "name": "Cube.005",
      "children": [
        55
      ]
    },
    {
      "name": "Cube.005_Right atrium. label_0",
      "mesh": 18
    },
    {
      "name": "Cube.006",
      "translation": [
        -63.602901458740234,
        -22.697799682617188,
        39.97520065307617
      ],
      "rotation": [
        -0.30076974881060276,
        -0.4634622070168784,
        0.6703569249736238,
        0.4953402111053093
      ],
      "scale": [
        0.9905129261949027,
        0.9905128140187544,
        51.118809881817164
      ],
      "children": [
        57
      ]
    },
    {
      "name": "Cube.006",
      "children": [
        58
      ]
    },
    {
      "name": "Cube.006_Heart Valve1_0",
      "mesh": 19
    },
    {
      "name": "Cube.007",
      "translation": [
        44.159000396728516,
        -2.395930051803589,
        50.96310043334961
      ],
      "rotation": [
        0.4683316485975261,
        0.8656199955305602,
        0.012603029601209308,
        -0.17665973621755557
      ],
      "scale": [
        0.9905135304531862,
        0.9905137706967511,
        62.360162490061526
      ],
      "children": [
        60
      ]
    },
    {
      "name": "Cube.007",
      "children": [
        61
      ]
    },
    {
      "name": "Cube.007_HeartValve Label_0",
      "mesh": 20
    },
    {
      "name": "Cube.008",
      "translation": [
        -54.061100006103516,
        -89.09960174560547,
        6.569519996643066
      ],
      "rotation": [
        0.43217769928694505,
        0.6030497286521359,
        -0.5665337396341746,
        -0.3585993007539175
      ],
      "scale": [
        0.9905136079348504,
        0.9905131863164037,
        45.19079654198354
      ],
      "children": [
        63
      ]
    },
    {
      "name": "Cube.008",
      "children": [
        64
      ]
    },
    {
      "name": "Cube.008_RV Label_0",
      "mesh": 21
    },
    {
      "name": "Cube.009",
      "translation": [
        87.3988037109375,
        -88.92729949951172,
        -9.279080390930176
      ],
      "rotation": [
        -0.6097247436618033,
        -0.3311517163606113,
        0.2578926609073247,
        0.6723582295455055
      ],
      "scale": [
        0.9905138738877142,
        0.9905136948586455,
        49.783729788700526
      ],
      "children": [
        66
      ]
    },
    {
      "name": "Cube.009",
      "children": [
        67
      ]
    },
    {
      "name": "Cube.009_LV Label_0",
      "mesh": 22
    },
    {
      "name": "Sketchfab_model",
      "translation": [
        6.224768161773682,
        -1.7920944690704346,
        -545.3971557617188
      ],
      "rotation": [
        -0.6964927587418183,
        0.012862417847867841,
        0.013247158648594187,
        0.7173262214640398
      ],
      "children": [
        0
      ]
    }
  ],
  "animations": [
    {
      "name": "Scene",
      "samplers": [
        {
          "input": 227,
          "output": 228,
          "interpolation": "LINEAR"
        }
      ],
      "channels": [
        {
          "sampler": 0,
          "target": {
            "node": 5,
            "path": "weights"
          }
        },
        {
          "sampler": 0,
          "target": {
            "node": 6,
            "path": "weights"
          }
        },
        {
          "sampler": 0,
          "target": {
            "node": 7,
            "path": "weights"
          }
        }
      ]
    }
  ],
  "scenes": [
    {
      "name": "Scene",
      "nodes": [
        68
      ]
    }
  ],
  "extensionsUsed": [
    "KHR_materials_specular"
  ]
}